<svg width="33" height="33" viewBox="0 0 33 33" fill="none" xmlns="http://www.w3.org/2000/svg">
<circle cx="16.5" cy="16.5" r="16.5" fill="#2F2E41"/>
<path d="M8.00821 11.1571C2.66535 16.5 6.43678 24.881 13.8749 24.1476C18.2749 23.7286 19.3225 21.2143 15.132 21.2143C11.4653 21.2143 9.57964 19.5381 9.57964 16.3952C9.57964 13.4619 11.9892 11.5762 15.0273 11.9952C16.5987 12.2048 17.4368 11.7857 17.4368 10.7381C17.4368 7.90953 11.0463 8.11905 8.00821 11.1571Z" fill="white"/>
<path d="M20.3701 12.3095C19.0082 14.3 17.9606 16.1857 17.9606 16.5C17.9606 16.8143 19.0082 18.7 20.3701 20.6905C21.8368 23.1 23.513 24.3571 25.0844 24.3571H27.4939L24.8749 20.9C21.6272 16.7095 21.6272 16.1857 24.2463 12.8333C26.7606 9.58572 26.8653 8.64286 24.5606 8.64286C23.513 8.64286 21.6272 10.3191 20.3701 12.3095Z" fill="white"/>
</svg>
